# xmcd
#
# Track frame offsets:
# 150
# 14581
# 23944
# 43637
# 67331
# 92536
# 111483
#
# Disc length: 1735 seconds
#
# Revision: 0
# Processed by: cddbd v1.4PL0 Copyright (c) Steve Scherf et al.
# Submitted via: Audion 3.0.2 (http://www.panic.com/audion/)
#
DISCID=5f06c507
DTITLE=Arious Artist - 70's Various Artists
DYEAR=1900
DGENRE=
TTITLE0=Rock Steady Aretha Franklin 
TTITLE1=Rock Steady The Whispers
TTITLE2=adfjl;
TTITLE3=asfdhkl
TTITLE4=asfdjk
TTITLE5=adfgh
TTITLE6=Crazy-n-Luv Beyonce'
EXTD=
EXTT0=
EXTT1=
EXTT2=
EXTT3=
EXTT4=
EXTT5=
EXTT6=
PLAYORDER=
